<svg width="88" height="30" viewBox="0 0 88 30" fill="none" xmlns="http://www.w3.org/2000/svg">
<g id="logo-gb 2" clip-path="url(#clip0_762_592)">
<g id="icon">
<path id="Vector" d="M38.0087 7.45326L34.5814 3.95972H30.4199L35.8411 9.80987L38.0087 7.45326Z" fill="#FF744F"/>
<path id="Vector_2" d="M34.3211 3.11021L31.7452 0H11.7417L9.22656 3.11021H34.3211Z" fill="#FF744F"/>
<path id="Vector_3" d="M2.198 4.89185L0 7.44884L16.1375 26.5283L18.2703 23.9713L2.198 4.89185Z" fill="#3F4F8B"/>
<path id="Vector_4" d="M32.8696 8.32861L16.7061 27.5779L18.8259 29.9999L35.0806 10.6939L32.8696 8.32861Z" fill="#3F4F8B"/>
<path id="Vector_5" d="M4.99107 6.61681L10.4861 0H6.22908L2.92773 4.06853L4.99107 6.61681Z" fill="#3F4F8B"/>
<path id="Vector_6" d="M26.4578 14.5578C25.6846 13.1073 24.0209 12.3101 21.8012 12.3101H17.857V9.04308H25.9496V6.79102H15.3896V18.9618L17.0924 20.9917H20.9802L23.0826 18.5218C22.4488 18.7024 21.7908 18.7832 21.1322 18.7614H17.857V14.4054H21.5797C23.4215 14.4054 24.451 15.1154 24.451 16.4963C24.4499 16.642 24.4398 16.7874 24.4206 16.9319L26.4578 14.5578Z" fill="#3F4F8B"/>
<path id="Vector_7" d="M21.4287 4.03369H11.9026V14.8018L14.3699 17.7421V6.07667H21.4287V4.03369Z" fill="#3F4F8B"/>
</g>
<g id="&#208;&#147;&#208;&#187;&#208;&#176;&#208;&#178;&#208;&#189;&#209;&#139;&#208;&#185; &#208;&#177;&#209;&#131;&#209;&#133;&#208;&#179;&#208;&#176;&#208;&#187;&#209;&#130;&#208;&#181;&#209;&#128; 58">
<path d="M51.5619 6.80078H48.5612V12.6668H47.4646V5.94678H51.5619V6.80078Z" fill="#141414"/>
<path d="M54.5829 12.6668H53.5796V8.68611H52.2542C52.2169 9.28033 52.1593 9.79367 52.0816 10.2261C52.0069 10.6554 51.9167 11.0194 51.8109 11.3181C51.7051 11.6168 51.5869 11.8594 51.4562 12.0461C51.3256 12.2297 51.1871 12.3728 51.0409 12.4754C50.8947 12.5781 50.7438 12.6466 50.5882 12.6808C50.4358 12.715 50.2818 12.7321 50.1262 12.7321C49.8244 12.7321 49.6736 12.6823 49.6736 12.5828V11.9528H49.9349C50.0376 11.9528 50.1418 11.9357 50.2476 11.9014C50.3564 11.8672 50.4607 11.8003 50.5602 11.7008C50.6598 11.5981 50.7547 11.455 50.8449 11.2714C50.9382 11.0879 51.0222 10.8468 51.0969 10.5481C51.1747 10.2463 51.2416 9.88078 51.2976 9.45144C51.3536 9.019 51.3971 8.50411 51.4282 7.90678H54.5829V12.6668Z" fill="#141414"/>
<path d="M58.1137 10.5854C57.7559 10.5979 57.4541 10.6274 57.2083 10.6741C56.9626 10.7177 56.7634 10.7752 56.611 10.8468C56.4586 10.9152 56.3481 10.9977 56.2797 11.0941C56.2143 11.1906 56.1817 11.2963 56.1817 11.4114C56.1817 11.5234 56.1988 11.6199 56.233 11.7008C56.2703 11.7786 56.3201 11.8439 56.3823 11.8968C56.4477 11.9466 56.5223 11.9839 56.6063 12.0088C56.6934 12.0306 56.7883 12.0414 56.891 12.0414C57.1523 12.0414 57.3763 11.9932 57.563 11.8968C57.7528 11.7972 57.9363 11.6541 58.1137 11.4674V10.5854ZM55.4537 8.56944C55.9919 8.06856 56.6328 7.81811 57.3763 7.81811C57.6501 7.81811 57.8928 7.86322 58.1043 7.95344C58.319 8.04056 58.4979 8.165 58.641 8.32678C58.7872 8.48855 58.8977 8.68144 58.9723 8.90544C59.0501 9.12633 59.089 9.37211 59.089 9.64278V12.6668H58.641C58.5446 12.6668 58.4714 12.6528 58.4217 12.6248C58.3719 12.5937 58.3299 12.533 58.2957 12.4428L58.1977 12.0554C58.0763 12.1643 57.9566 12.2623 57.8383 12.3494C57.7201 12.4334 57.5972 12.505 57.4697 12.5641C57.3452 12.6232 57.2099 12.6668 57.0637 12.6948C56.9206 12.7259 56.7619 12.7414 56.5877 12.7414C56.3948 12.7414 56.2143 12.715 56.0463 12.6621C55.8814 12.6092 55.7383 12.5299 55.617 12.4241C55.4957 12.3152 55.3992 12.1814 55.3277 12.0228C55.2592 11.8641 55.225 11.6774 55.225 11.4628C55.225 11.2792 55.2732 11.1003 55.3697 10.9261C55.4692 10.7519 55.631 10.5963 55.855 10.4594C56.0821 10.3194 56.3792 10.2043 56.7463 10.1141C57.1166 10.0239 57.5723 9.97255 58.1137 9.96011V9.64278C58.1137 9.30056 58.0406 9.04544 57.8943 8.87744C57.7481 8.70944 57.5334 8.62544 57.2503 8.62544C57.0574 8.62544 56.8957 8.65033 56.765 8.70011C56.6343 8.74678 56.5208 8.79811 56.4243 8.85411C56.3279 8.91011 56.2423 8.963 56.1677 9.01278C56.093 9.05944 56.0137 9.08278 55.9297 9.08278C55.8612 9.08278 55.8021 9.06567 55.7523 9.03144C55.7057 8.99411 55.6668 8.949 55.6357 8.89611L55.4537 8.56944Z" fill="#141414"/>
<path d="M61.921 11.9714C62.1948 11.9714 62.411 11.9061 62.5697 11.7754C62.7315 11.6417 62.8123 11.4628 62.8123 11.2388C62.8123 11.1423 62.7983 11.0521 62.7703 10.9681C62.7423 10.8841 62.6941 10.8126 62.6257 10.7534C62.5572 10.6912 62.4655 10.643 62.3503 10.6088C62.2383 10.5746 62.0968 10.5574 61.9257 10.5574H60.9877V11.9714H61.921ZM60.9877 8.56944V9.92744H61.8137C61.9381 9.92744 62.0517 9.91033 62.1543 9.87611C62.2601 9.83878 62.3503 9.789 62.425 9.72678C62.5028 9.66144 62.5619 9.58522 62.6023 9.49811C62.6459 9.40789 62.6677 9.30833 62.6677 9.19944C62.6677 9.12167 62.6537 9.04544 62.6257 8.97078C62.5977 8.893 62.5495 8.82456 62.481 8.76544C62.4157 8.70633 62.3286 8.65967 62.2197 8.62544C62.1108 8.58811 61.9755 8.56944 61.8137 8.56944H60.9877ZM61.8463 7.90678C62.1419 7.90678 62.397 7.93633 62.6117 7.99544C62.8263 8.05144 63.0021 8.13078 63.139 8.23344C63.279 8.33611 63.3817 8.45744 63.447 8.59744C63.5123 8.73744 63.545 8.88833 63.545 9.05011C63.545 9.15278 63.531 9.26011 63.503 9.37211C63.475 9.48411 63.4268 9.59144 63.3583 9.69411C63.2899 9.79367 63.1966 9.88544 63.0783 9.96944C62.9632 10.0534 62.8155 10.1188 62.635 10.1654C62.9741 10.2277 63.2417 10.3521 63.4377 10.5388C63.6368 10.7223 63.7363 10.9681 63.7363 11.2761C63.7363 11.5126 63.6881 11.7179 63.5917 11.8921C63.4952 12.0663 63.363 12.211 63.195 12.3261C63.0301 12.4412 62.8372 12.5268 62.6163 12.5828C62.3986 12.6388 62.1683 12.6668 61.9257 12.6668H60.031V7.90678H61.8463Z" fill="#141414"/>
<path d="M68.5152 7.90678V12.6668H67.5166V10.5061H65.4586V12.6668H64.4552V7.90678H65.4586V9.75011H67.5166V7.90678H68.5152Z" fill="#141414"/>
<path d="M71.3984 11.9388C71.5446 11.9388 71.6721 11.9201 71.781 11.8828C71.893 11.8423 71.9848 11.7894 72.0564 11.7241C72.131 11.6557 72.1855 11.5748 72.2197 11.4814C72.257 11.3881 72.2757 11.2854 72.2757 11.1734C72.2757 11.0739 72.2586 10.9806 72.2244 10.8934C72.1932 10.8032 72.1419 10.7254 72.0704 10.6601C72.0019 10.5917 71.9117 10.5388 71.7997 10.5014C71.6877 10.461 71.5508 10.4408 71.389 10.4408H70.4604V11.9388H71.3984ZM71.3844 9.71744C71.7141 9.71744 71.9926 9.75789 72.2197 9.83878C72.4468 9.91655 72.6304 10.0223 72.7704 10.1561C72.9104 10.2899 73.0115 10.4454 73.0737 10.6228C73.1359 10.797 73.167 10.979 73.167 11.1688C73.167 11.3897 73.1281 11.5919 73.0504 11.7754C72.9726 11.9559 72.8575 12.113 72.705 12.2468C72.5557 12.3806 72.3706 12.4848 72.1497 12.5594C71.9319 12.631 71.6815 12.6668 71.3984 12.6668H69.5084V7.90678H70.4604V9.71744H71.3844ZM75.1177 7.90678V12.6668H74.1144V7.90678H75.1177Z" fill="#141414"/>
<path d="M80.297 7.90678V12.6668H79.2936V9.68478C79.2936 9.61944 79.2967 9.54789 79.303 9.47011C79.3092 9.39233 79.3185 9.313 79.331 9.23211C79.2998 9.30055 79.2687 9.36433 79.2376 9.42344C79.2096 9.47944 79.1785 9.53078 79.1443 9.57744L77.077 12.4194C77.0396 12.4786 76.9898 12.5361 76.9276 12.5921C76.8654 12.645 76.7954 12.6714 76.7176 12.6714H76.111V7.90678H77.1143V10.8888C77.1143 10.9541 77.1096 11.0272 77.1003 11.1081C77.0941 11.189 77.0847 11.2699 77.0723 11.3508C77.1345 11.2077 77.1983 11.0894 77.2636 10.9961L79.331 8.15878C79.3683 8.09655 79.4181 8.039 79.4803 7.98611C79.5425 7.93322 79.6125 7.90678 79.6903 7.90678H80.297ZM78.2623 6.72144C78.3836 6.72144 78.4847 6.709 78.5656 6.68411C78.6496 6.65611 78.7165 6.61256 78.7663 6.55344C78.8161 6.49122 78.8518 6.41189 78.8736 6.31544C78.8954 6.21589 78.9063 6.093 78.9063 5.94678H79.4943C79.5658 5.94678 79.6187 5.97789 79.653 6.04011C79.6872 6.09922 79.7043 6.16456 79.7043 6.23611C79.7043 6.39478 79.6701 6.53789 79.6016 6.66544C79.5363 6.78989 79.4414 6.89722 79.317 6.98744C79.1925 7.07456 79.0401 7.143 78.8596 7.19278C78.6823 7.23944 78.4832 7.26278 78.2623 7.26278C78.0414 7.26278 77.8407 7.23944 77.6603 7.19278C77.483 7.143 77.3321 7.07456 77.2076 6.98744C77.0832 6.89722 76.9867 6.78989 76.9183 6.66544C76.853 6.53789 76.8203 6.39478 76.8203 6.23611C76.8203 6.16456 76.8374 6.09922 76.8716 6.04011C76.9058 5.97789 76.9587 5.94678 77.0303 5.94678H77.6183C77.6183 6.093 77.6292 6.21589 77.651 6.31544C77.6727 6.41189 77.7085 6.49122 77.7583 6.55344C77.8081 6.61256 77.8734 6.65611 77.9543 6.68411C78.0383 6.709 78.141 6.72144 78.2623 6.72144Z" fill="#141414"/>
<path d="M49.4712 20.6614C49.9037 20.6614 50.2272 20.5261 50.4419 20.2554C50.6566 19.9817 50.7639 19.5881 50.7639 19.0748C50.7639 18.5677 50.6597 18.1772 50.4512 17.9034C50.2428 17.6266 49.927 17.4881 49.5039 17.4881C49.087 17.4881 48.7634 17.6157 48.5332 17.8708C48.3061 18.1259 48.1926 18.4992 48.1926 18.9908C48.1926 19.5259 48.2983 19.9381 48.5099 20.2274C48.7246 20.5168 49.045 20.6614 49.4712 20.6614ZM49.8026 15.5981C49.5008 15.6199 49.241 15.6821 49.0232 15.7848C48.8086 15.8874 48.6297 16.0259 48.4866 16.2001C48.3466 16.3743 48.2392 16.5828 48.1646 16.8254C48.093 17.0681 48.051 17.3388 48.0386 17.6374C48.1941 17.3668 48.4197 17.1506 48.7152 16.9888C49.0108 16.827 49.3561 16.7461 49.7512 16.7461C50.0686 16.7461 50.3532 16.8021 50.6052 16.9141C50.8572 17.0261 51.0703 17.1832 51.2446 17.3854C51.4219 17.5877 51.5572 17.8319 51.6506 18.1181C51.747 18.4043 51.7952 18.7217 51.7952 19.0701C51.7952 19.4248 51.7392 19.7468 51.6272 20.0361C51.5183 20.3223 51.3628 20.5681 51.1606 20.7734C50.9583 20.9757 50.7141 21.1312 50.4279 21.2401C50.1417 21.349 49.8228 21.4034 49.4712 21.4034C49.1383 21.4034 48.8303 21.349 48.5472 21.2401C48.2641 21.1281 48.0183 20.9492 47.8099 20.7034C47.6014 20.4546 47.4381 20.1294 47.3199 19.7281C47.2048 19.3268 47.1472 18.8352 47.1472 18.2534C47.1472 17.7619 47.1923 17.3077 47.2826 16.8908C47.3728 16.4739 47.519 16.1099 47.7212 15.7988C47.9234 15.4846 48.1879 15.2326 48.5146 15.0428C48.8443 14.8499 49.2457 14.7348 49.7186 14.6974L51.4126 14.5574L51.4686 15.0801C51.481 15.1952 51.4639 15.2917 51.4172 15.3694C51.3737 15.4472 51.2959 15.4892 51.1839 15.4954L49.8026 15.5981Z" fill="#141414"/>
<path d="M56.5635 16.5734L53.9408 22.6868C53.9066 22.7583 53.8646 22.8143 53.8148 22.8548C53.7681 22.8952 53.695 22.9154 53.5955 22.9154H52.8535L53.7308 21.0114L51.7895 16.5734H52.6621C52.7461 16.5734 52.8099 16.5937 52.8535 16.6341C52.9001 16.6714 52.9343 16.7166 52.9561 16.7694L54.0901 19.4714C54.1181 19.5492 54.143 19.627 54.1648 19.7048C54.1897 19.7794 54.213 19.8572 54.2348 19.9381C54.2597 19.8572 54.2846 19.7779 54.3095 19.7001C54.3343 19.6223 54.3623 19.5446 54.3935 19.4668L55.4808 16.7694C55.5026 16.7134 55.5383 16.6668 55.5881 16.6294C55.641 16.5921 55.6986 16.5734 55.7608 16.5734H56.5635Z" fill="#141414"/>
<path d="M61.0711 21.3334H60.1098C60.032 21.3334 59.9698 21.3132 59.9231 21.2728C59.8795 21.2323 59.8438 21.1872 59.8158 21.1374L58.7191 19.3781C58.6911 19.4839 58.6538 19.5757 58.6071 19.6534L57.6131 21.1374C57.5789 21.1872 57.54 21.2323 57.4964 21.2728C57.456 21.3132 57.4015 21.3334 57.3331 21.3334H56.4371L58.0844 18.8788L56.5024 16.5734H57.4638C57.5415 16.5734 57.5975 16.5859 57.6318 16.6108C57.6691 16.6326 57.7018 16.6668 57.7298 16.7134L58.8078 18.3934C58.8358 18.2908 58.8793 18.1928 58.9384 18.0994L59.8484 16.7321C59.9106 16.6263 59.99 16.5734 60.0864 16.5734H61.0058L59.4238 18.8368L61.0711 21.3334Z" fill="#141414"/>
<path d="M64.676 17.3294H62.52V21.3334H61.5167V16.5734H64.676V17.3294Z" fill="#141414"/>
<path d="M67.673 19.2521C67.3153 19.2646 67.0135 19.2941 66.7677 19.3408C66.5219 19.3843 66.3228 19.4419 66.1704 19.5134C66.0179 19.5819 65.9075 19.6643 65.839 19.7608C65.7737 19.8572 65.741 19.963 65.741 20.0781C65.741 20.1901 65.7582 20.2866 65.7924 20.3674C65.8297 20.4452 65.8795 20.5106 65.9417 20.5634C66.007 20.6132 66.0817 20.6506 66.1657 20.6754C66.2528 20.6972 66.3477 20.7081 66.4504 20.7081C66.7117 20.7081 66.9357 20.6599 67.1224 20.5634C67.3122 20.4639 67.4957 20.3208 67.673 20.1341V19.2521ZM65.013 17.2361C65.5513 16.7352 66.1922 16.4848 66.9357 16.4848C67.2095 16.4848 67.4522 16.5299 67.6637 16.6201C67.8784 16.7072 68.0573 16.8317 68.2004 16.9934C68.3466 17.1552 68.457 17.3481 68.5317 17.5721C68.6095 17.793 68.6484 18.0388 68.6484 18.3094V21.3334H68.2004C68.1039 21.3334 68.0308 21.3194 67.981 21.2914C67.9313 21.2603 67.8893 21.1997 67.855 21.1094L67.757 20.7221C67.6357 20.831 67.5159 20.929 67.3977 21.0161C67.2795 21.1001 67.1566 21.1717 67.029 21.2308C66.9046 21.2899 66.7693 21.3334 66.623 21.3614C66.4799 21.3926 66.3213 21.4081 66.147 21.4081C65.9542 21.4081 65.7737 21.3817 65.6057 21.3288C65.4408 21.2759 65.2977 21.1966 65.1764 21.0908C65.055 20.9819 64.9586 20.8481 64.887 20.6894C64.8186 20.5308 64.7844 20.3441 64.7844 20.1294C64.7844 19.9459 64.8326 19.767 64.929 19.5928C65.0286 19.4186 65.1904 19.263 65.4144 19.1261C65.6415 18.9861 65.9386 18.871 66.3057 18.7808C66.6759 18.6906 67.1317 18.6392 67.673 18.6268V18.3094C67.673 17.9672 67.5999 17.7121 67.4537 17.5441C67.3075 17.3761 67.0928 17.2921 66.8097 17.2921C66.6168 17.2921 66.455 17.317 66.3244 17.3668C66.1937 17.4134 66.0802 17.4648 65.9837 17.5208C65.8873 17.5768 65.8017 17.6297 65.727 17.6794C65.6524 17.7261 65.573 17.7494 65.489 17.7494C65.4206 17.7494 65.3615 17.7323 65.3117 17.6981C65.265 17.6608 65.2262 17.6157 65.195 17.5628L65.013 17.2361Z" fill="#141414"/>
<path d="M73.8931 21.3334H72.8897V17.3528H71.5644C71.5271 17.947 71.4695 18.4603 71.3917 18.8928C71.3171 19.3221 71.2268 19.6861 71.1211 19.9848C71.0153 20.2834 70.8971 20.5261 70.7664 20.7128C70.6357 20.8963 70.4973 21.0394 70.3511 21.1421C70.2048 21.2448 70.0539 21.3132 69.8984 21.3474C69.7459 21.3817 69.5919 21.3988 69.4364 21.3988C69.1346 21.3988 68.9837 21.349 68.9837 21.2494V20.6194H69.2451C69.3477 20.6194 69.4519 20.6023 69.5577 20.5681C69.6666 20.5339 69.7708 20.467 69.8704 20.3674C69.9699 20.2648 70.0648 20.1217 70.1551 19.9381C70.2484 19.7546 70.3324 19.5134 70.4071 19.2148C70.4848 18.913 70.5517 18.5474 70.6077 18.1181C70.6637 17.6857 70.7073 17.1708 70.7384 16.5734H73.8931V21.3334Z" fill="#141414"/>
<path d="M78.9032 17.3294H77.1485V21.3334H76.1452V17.3294H74.3858V16.5734H78.9032V17.3294Z" fill="#141414"/>
<path d="M82.3629 18.4168C82.3629 18.2488 82.338 18.0932 82.2882 17.9501C82.2416 17.8039 82.1716 17.6779 82.0782 17.5721C81.9849 17.4632 81.8682 17.3792 81.7282 17.3201C81.5914 17.2579 81.4327 17.2268 81.2522 17.2268C80.8882 17.2268 80.602 17.331 80.3936 17.5394C80.1851 17.7479 80.0529 18.0403 79.9969 18.4168H82.3629ZM79.9689 19.0328C79.9813 19.3034 80.0233 19.5383 80.0949 19.7374C80.1665 19.9334 80.2613 20.0968 80.3796 20.2274C80.5009 20.3581 80.644 20.4561 80.8089 20.5214C80.9769 20.5837 81.1636 20.6148 81.3689 20.6148C81.5649 20.6148 81.7345 20.593 81.8776 20.5494C82.0207 20.5028 82.1451 20.453 82.2509 20.4001C82.3567 20.3441 82.4469 20.2943 82.5216 20.2508C82.5962 20.2041 82.6647 20.1808 82.7269 20.1808C82.8078 20.1808 82.87 20.2119 82.9136 20.2741L83.1982 20.6428C83.08 20.7828 82.9462 20.901 82.7969 20.9974C82.6476 21.0939 82.4889 21.1732 82.3209 21.2354C82.1529 21.2946 81.9802 21.3366 81.8029 21.3614C81.6256 21.3894 81.4529 21.4034 81.2849 21.4034C80.9551 21.4034 80.6487 21.349 80.3656 21.2401C80.0856 21.1281 79.8414 20.9648 79.6329 20.7501C79.4276 20.5354 79.2658 20.2694 79.1476 19.9521C79.0325 19.6348 78.9749 19.2692 78.9749 18.8554C78.9749 18.5257 79.0262 18.2177 79.1289 17.9314C79.2347 17.6452 79.384 17.3963 79.5769 17.1848C79.7729 16.9732 80.0093 16.8068 80.2862 16.6854C80.5662 16.561 80.882 16.4988 81.2336 16.4988C81.526 16.4988 81.7967 16.547 82.0456 16.6434C82.2945 16.7368 82.5091 16.8752 82.6896 17.0588C82.87 17.2423 83.01 17.4679 83.1096 17.7354C83.2122 17.9999 83.2636 18.3017 83.2636 18.6408C83.2636 18.7963 83.2465 18.9006 83.2122 18.9534C83.178 19.0063 83.1158 19.0328 83.0256 19.0328H79.9689Z" fill="#141414"/>
<path d="M84.9692 20.1388C85.1092 20.3192 85.2617 20.4468 85.4266 20.5214C85.5946 20.593 85.7797 20.6288 85.9819 20.6288C86.3739 20.6288 86.6788 20.4857 86.8966 20.1994C87.1175 19.9132 87.2279 19.487 87.2279 18.9208C87.2279 18.6283 87.203 18.3794 87.1532 18.1741C87.1035 17.9657 87.0319 17.7961 86.9386 17.6654C86.8452 17.5348 86.7317 17.4399 86.5979 17.3808C86.4641 17.3217 86.3132 17.2921 86.1452 17.2921C85.8901 17.2921 85.6692 17.3481 85.4826 17.4601C85.299 17.569 85.1279 17.7261 84.9692 17.9314V20.1388ZM84.9179 17.2641C85.117 17.0308 85.3426 16.8426 85.5946 16.6994C85.8497 16.5563 86.1452 16.4848 86.4812 16.4848C86.7488 16.4848 86.9915 16.5392 87.2092 16.6481C87.427 16.7539 87.6137 16.9094 87.7692 17.1148C87.9248 17.3201 88.0446 17.5752 88.1286 17.8801C88.2157 18.1819 88.2592 18.5288 88.2592 18.9208C88.2592 19.2723 88.211 19.6006 88.1146 19.9054C88.0212 20.2072 87.8859 20.4701 87.7086 20.6941C87.5312 20.915 87.3166 21.0892 87.0646 21.2168C86.8126 21.3412 86.5279 21.4034 86.2106 21.4034C85.9306 21.4034 85.6926 21.3583 85.4966 21.2681C85.3037 21.1779 85.1279 21.0534 84.9692 20.8948V22.9154H83.9659V16.5734H84.5726C84.7095 16.5734 84.7966 16.6372 84.8339 16.7648L84.9179 17.2641Z" fill="#141414"/>
</g>
</g>
<defs>
<clipPath id="clip0_762_592">
<rect width="88" height="30" fill="white"/>
</clipPath>
</defs>
</svg>
