<svg width="110" height="27" viewBox="0 0 110 27" fill="none" xmlns="http://www.w3.org/2000/svg">
<g id="Frame 778">
<g id="FUTURE">
<path d="M0.711914 0H8.99858V2.376H3.35191V5.112H8.26525V7.488H3.35191V12.6H0.711914V0Z" fill="#141414"/>
<path d="M16.6092 12.888C15.8392 12.888 15.1303 12.774 14.4825 12.546C13.8348 12.318 13.2725 11.988 12.7959 11.556C12.3192 11.112 11.9464 10.566 11.6775 9.918C11.4086 9.27 11.2742 8.526 11.2742 7.686V0H13.9142V7.488C13.9142 8.484 14.1587 9.234 14.6475 9.738C15.1487 10.23 15.8087 10.476 16.6275 10.476C17.4342 10.476 18.082 10.23 18.5709 9.738C19.0598 9.234 19.3042 8.484 19.3042 7.488V0H21.9442V7.686C21.9442 8.526 21.8098 9.27 21.5409 9.918C21.272 10.566 20.8992 11.112 20.4225 11.556C19.9459 11.988 19.3837 12.318 18.7359 12.546C18.0881 12.774 17.3792 12.888 16.6092 12.888Z" fill="#141414"/>
<path d="M34.1244 0V2.376H30.3477V12.6H27.7077V2.376H23.9311V0H34.1244Z" fill="#141414"/>
<path d="M41.4416 12.888C40.6716 12.888 39.9627 12.774 39.3149 12.546C38.6671 12.318 38.1049 11.988 37.6282 11.556C37.1516 11.112 36.7788 10.566 36.5099 9.918C36.241 9.27 36.1066 8.526 36.1066 7.686V0H38.7466V7.488C38.7466 8.484 38.991 9.234 39.4799 9.738C39.981 10.23 40.641 10.476 41.4599 10.476C42.2666 10.476 42.9143 10.23 43.4032 9.738C43.8921 9.234 44.1366 8.484 44.1366 7.488V0H46.7766V7.686C46.7766 8.526 46.6421 9.27 46.3732 9.918C46.1043 10.566 45.7316 11.112 45.2549 11.556C44.7782 11.988 44.216 12.318 43.5682 12.546C42.9204 12.774 42.2116 12.888 41.4416 12.888Z" fill="#141414"/>
<path d="M52.1368 6.012H54.7584C55.2595 6.012 55.6934 5.856 56.0601 5.544C56.4268 5.22 56.6101 4.77 56.6101 4.194C56.6101 3.618 56.4268 3.162 56.0601 2.826C55.6934 2.478 55.2595 2.304 54.7584 2.304H52.1368V6.012ZM54.3918 8.316H52.1368V12.6H49.6068V0H54.8134C55.4734 0 56.0723 0.102 56.6101 0.306001C57.1601 0.498 57.6245 0.78 58.0034 1.152C58.3945 1.512 58.694 1.95 58.9018 2.466C59.1218 2.982 59.2318 3.558 59.2318 4.194C59.2318 5.106 59.024 5.88 58.6084 6.516C58.1929 7.152 57.6184 7.626 56.8851 7.938L59.9468 12.6H57.1051L54.3918 8.316Z" fill="#141414"/>
<path d="M61.7096 0H70.1796V2.376H64.3496H61.7096V0Z" fill="#141414"/>
<path d="M64.3496 4.878H70.1796V7.254H64.3496H61.7096V4.878H64.3496Z" fill="#141414"/>
<path d="M64.3496 10.224H70.1796V12.6H61.7096V10.224H64.3496Z" fill="#141414"/>
</g>
<g id="staff">
<path d="M77.464 12.8885C75.6042 12.8885 74.299 12.157 73.5483 10.694L75.1617 9.72051C75.3857 10.1605 75.6995 10.496 76.1028 10.727C76.5061 10.958 76.9767 11.0735 77.5145 11.0735C77.9514 11.0735 78.3043 11.002 78.5732 10.859C78.8421 10.716 78.9765 10.5235 78.9765 10.2815C78.9765 10.0505 78.8533 9.87451 78.6068 9.75351C78.3603 9.63251 78.0522 9.52801 77.6825 9.44001C77.3128 9.35201 76.9095 9.25851 76.4725 9.15951C76.0468 9.06051 75.649 8.92301 75.2793 8.74701C74.9096 8.56001 74.6015 8.31801 74.355 8.02101C74.1085 7.71301 73.9853 7.30601 73.9853 6.80001C73.9853 6.40401 74.0637 6.04651 74.2206 5.72751C74.3886 5.40851 74.6183 5.13351 74.9096 4.90251C75.2121 4.67151 75.5706 4.49551 75.9851 4.37451C76.4109 4.24251 76.887 4.17651 77.4136 4.17651C79.0606 4.17651 80.2426 4.80901 80.9596 6.07401L79.3463 7.08051C79.1558 6.72851 78.8981 6.45351 78.5732 6.25551C78.2483 6.05751 77.8506 5.95851 77.38 5.95851C76.9767 5.95851 76.6518 6.03001 76.4053 6.17301C76.1588 6.30501 76.0356 6.47551 76.0356 6.68451C76.0356 6.89351 76.1588 7.05301 76.4053 7.16301C76.6518 7.27301 76.9599 7.37201 77.3296 7.46001C77.7105 7.54801 78.1138 7.64151 78.5396 7.74051C78.9765 7.83951 79.3799 7.98251 79.7496 8.16951C80.1305 8.35651 80.4442 8.60951 80.6907 8.92851C80.9372 9.23651 81.0604 9.64901 81.0604 10.166C81.0604 10.573 80.9764 10.947 80.8083 11.288C80.6403 11.618 80.3994 11.904 80.0857 12.146C79.772 12.377 79.3911 12.5585 78.9429 12.6905C78.506 12.8225 78.013 12.8885 77.464 12.8885Z" fill="#107A88"/>
<path d="M85.3783 9.09351C85.3783 9.68751 85.5071 10.111 85.7648 10.364C86.0225 10.617 86.4426 10.7435 87.0252 10.7435H87.5798V12.7565H86.7227C85.5015 12.7565 84.6052 12.476 84.0338 11.915C83.4736 11.343 83.1935 10.4575 83.1935 9.25851V6.32151H81.7987V4.40751H83.1935V2.09751H85.3783V4.40751H87.5126V6.32151H85.3783V9.09351Z" fill="#107A88"/>
<path d="M94.1969 9.01101L92.7684 9.07701C91.9841 9.11001 91.4407 9.23651 91.1382 9.45651C90.8469 9.66551 90.7013 9.91301 90.7013 10.199C90.7013 10.496 90.8245 10.7325 91.071 10.9085C91.3175 11.0845 91.648 11.1725 92.0625 11.1725C92.6787 11.1725 93.1885 10.98 93.5919 10.595C93.9952 10.199 94.1969 9.67651 94.1969 9.02751V9.01101ZM88.5838 10.331C88.5838 9.52801 88.9031 8.88451 89.5417 8.40051C90.1915 7.90551 91.1438 7.63601 92.3987 7.59201L94.1969 7.52601V7.46001C94.1969 6.99801 94.04 6.62401 93.7263 6.33801C93.4238 6.04101 93.0037 5.89251 92.4659 5.89251C91.5696 5.89251 90.931 6.29401 90.55 7.09701L88.8359 6.27201C89.1608 5.57901 89.6369 5.05651 90.2644 4.70451C90.903 4.35251 91.6592 4.17651 92.5331 4.17651C93.7095 4.17651 94.6282 4.47901 95.2892 5.08401C95.9502 5.68901 96.2807 6.51951 96.2807 7.57551V12.6575H94.1969V11.6345C93.5806 12.4705 92.69 12.8885 91.5248 12.8885C91.0542 12.8885 90.6341 12.8225 90.2644 12.6905C89.9058 12.5585 89.5977 12.377 89.34 12.146C89.0936 11.915 88.9031 11.6455 88.7687 11.3375C88.6454 11.0295 88.5838 10.694 88.5838 10.331Z" fill="#107A88"/>
<path d="M100.869 4.40751H102.97V6.32151H100.869V12.6575H98.6846V6.32151H97.357V4.40751H98.6846V4.14351C98.6846 1.81151 99.8442 0.645508 102.163 0.645508H102.903V2.59251H102.331C101.794 2.59251 101.413 2.71901 101.189 2.97201C100.976 3.21401 100.869 3.62101 100.869 4.19301V4.40751Z" fill="#107A88"/>
<path d="M107.188 4.40751H109.289V6.32151H107.188V12.6575H105.003V6.32151H103.675V4.40751H105.003V4.14351C105.003 1.81151 106.163 0.645508 108.482 0.645508H109.221V2.59251H108.65C108.112 2.59251 107.731 2.71901 107.507 2.97201C107.294 3.21401 107.188 3.62101 107.188 4.19301V4.40751Z" fill="#107A88"/>
</g>
<g id="&#209;&#128;&#208;&#181;&#208;&#186;&#209;&#128;&#209;&#131;&#209;&#130;&#208;&#184;&#208;&#189;&#208;&#179;&#208;&#190;&#208;&#178;&#208;&#190;&#208;&#181; &#208;&#176;&#208;&#179;&#208;&#181;&#208;&#189;&#209;&#130;&#209;&#129;&#209;&#130;&#208;&#178;&#208;&#190;">
<path d="M3.02225 24.0569C3.25781 24.0569 3.47224 24.0153 3.66552 23.9323C3.8588 23.8493 4.0249 23.7337 4.16383 23.5854C4.30275 23.4312 4.40845 23.2533 4.48093 23.0517C4.55945 22.8441 4.59871 22.6217 4.59871 22.3845C4.59871 22.1414 4.55945 21.919 4.48093 21.7174C4.40845 21.5157 4.30275 21.3408 4.16383 21.1925C4.0249 21.0383 3.8588 20.9197 3.66552 20.8367C3.47224 20.7537 3.25781 20.7122 3.02225 20.7122C2.78669 20.7122 2.57226 20.7537 2.37898 20.8367C2.1857 20.9197 2.01959 21.0383 1.88067 21.1925C1.74175 21.3408 1.63303 21.5157 1.55451 21.7174C1.48203 21.919 1.44579 22.1414 1.44579 22.3845C1.44579 22.6217 1.48203 22.8441 1.55451 23.0517C1.63303 23.2533 1.74175 23.4312 1.88067 23.5854C2.01959 23.7337 2.1857 23.8493 2.37898 23.9323C2.57226 24.0153 2.78669 24.0569 3.02225 24.0569ZM3.12191 24.7329C2.75951 24.7329 2.43334 24.6558 2.14342 24.5016C1.85953 24.3474 1.62699 24.131 1.44579 23.8523V26.3875H0.711914V20.1607H1.44579V20.9168C1.62699 20.6381 1.85953 20.4216 2.14342 20.2674C2.43334 20.1132 2.75951 20.0361 3.12191 20.0361C3.436 20.0361 3.72894 20.0954 4.00074 20.214C4.27255 20.3326 4.50811 20.4957 4.70744 20.7033C4.90676 20.9108 5.06078 21.1599 5.1695 21.4505C5.28426 21.7352 5.34164 22.0465 5.34164 22.3845C5.34164 22.7225 5.28426 23.0369 5.1695 23.3274C5.06078 23.6121 4.90676 23.8582 4.70744 24.0658C4.50811 24.2733 4.27255 24.4364 4.00074 24.555C3.72894 24.6736 3.436 24.7329 3.12191 24.7329Z" fill="#717B84"/>
<path d="M6.99689 21.9486H9.92332C9.91727 21.7707 9.87499 21.6047 9.79647 21.4505C9.72399 21.2963 9.62433 21.1658 9.49749 21.0591C9.37669 20.9464 9.23172 20.8604 9.0626 20.8011C8.89348 20.7359 8.70926 20.7033 8.50993 20.7033C8.11129 20.7033 7.77908 20.8189 7.51332 21.0502C7.25359 21.2756 7.08145 21.575 6.99689 21.9486ZM8.55523 24.7329C8.20491 24.7329 7.88478 24.6766 7.59486 24.5639C7.31098 24.4453 7.06635 24.2822 6.86099 24.0746C6.65562 23.8671 6.49556 23.621 6.3808 23.3363C6.26604 23.0517 6.20866 22.7403 6.20866 22.4023C6.20866 22.0584 6.26604 21.7441 6.3808 21.4594C6.49556 21.1688 6.65562 20.9197 6.86099 20.7122C7.07239 20.4987 7.32004 20.3326 7.60392 20.214C7.8878 20.0954 8.19585 20.0361 8.52805 20.0361C8.84818 20.0361 9.1381 20.0895 9.39783 20.1963C9.66359 20.2971 9.89009 20.4424 10.0773 20.6321C10.2646 20.8219 10.4095 21.0502 10.5122 21.3171C10.6209 21.578 10.6753 21.8686 10.6753 22.1888C10.6753 22.3193 10.6662 22.4527 10.6481 22.5891H6.96065C7.00293 23.0339 7.16601 23.3897 7.4499 23.6566C7.73982 23.9234 8.11129 24.0569 8.56429 24.0569C9.1381 24.0569 9.58507 23.8137 9.90519 23.3274L10.485 23.7544C10.026 24.4067 9.38273 24.7329 8.55523 24.7329Z" fill="#717B84"/>
<path d="M13.2573 22.6425H12.5144V24.6084H11.7805V20.1607H12.5144V21.9842H13.2482L14.7613 20.1607H15.6039L13.8372 22.2689L15.6401 24.6084H14.7613L13.2573 22.6425Z" fill="#717B84"/>
<path d="M18.8244 24.0569C19.06 24.0569 19.2744 24.0153 19.4677 23.9323C19.661 23.8493 19.8271 23.7337 19.966 23.5854C20.1049 23.4312 20.2106 23.2533 20.2831 23.0517C20.3616 22.8441 20.4009 22.6217 20.4009 22.3845C20.4009 22.1414 20.3616 21.919 20.2831 21.7174C20.2106 21.5157 20.1049 21.3408 19.966 21.1925C19.8271 21.0383 19.661 20.9197 19.4677 20.8367C19.2744 20.7537 19.06 20.7122 18.8244 20.7122C18.5888 20.7122 18.3744 20.7537 18.1811 20.8367C17.9879 20.9197 17.8218 21.0383 17.6828 21.1925C17.5439 21.3408 17.4352 21.5157 17.3567 21.7174C17.2842 21.919 17.2479 22.1414 17.2479 22.3845C17.2479 22.6217 17.2842 22.8441 17.3567 23.0517C17.4352 23.2533 17.5439 23.4312 17.6828 23.5854C17.8218 23.7337 17.9879 23.8493 18.1811 23.9323C18.3744 24.0153 18.5888 24.0569 18.8244 24.0569ZM18.9241 24.7329C18.5617 24.7329 18.2355 24.6558 17.9456 24.5016C17.6617 24.3474 17.4291 24.131 17.2479 23.8523V26.3875H16.5141V20.1607H17.2479V20.9168C17.4291 20.6381 17.6617 20.4216 17.9456 20.2674C18.2355 20.1132 18.5617 20.0361 18.9241 20.0361C19.2382 20.0361 19.5311 20.0954 19.8029 20.214C20.0747 20.3326 20.3103 20.4957 20.5096 20.7033C20.7089 20.9108 20.8629 21.1599 20.9717 21.4505C21.0864 21.7352 21.1438 22.0465 21.1438 22.3845C21.1438 22.7225 21.0864 23.0369 20.9717 23.3274C20.8629 23.6121 20.7089 23.8582 20.5096 24.0658C20.3103 24.2733 20.0747 24.4364 19.8029 24.555C19.5311 24.6736 19.2382 24.7329 18.9241 24.7329Z" fill="#717B84"/>
<path d="M22.6135 26.3875L23.3564 24.5283L21.5806 20.1607H22.3598L23.7279 23.621L25.0325 20.1607H25.8026L23.3745 26.3875H22.6135Z" fill="#717B84"/>
<path d="M30.0143 20.1607V20.8189H28.456V24.6084H27.7312V20.8189H26.1728V20.1607H30.0143Z" fill="#717B84"/>
<path d="M31.6168 20.1607V23.5587L33.9996 20.1607H34.7425V24.6084H34.0086V21.2103L31.6258 24.6084H30.8829V20.1607H31.6168Z" fill="#717B84"/>
<path d="M39.926 20.1607V24.6084H39.1922V22.5802H36.8546V24.6084H36.1208V20.1607H36.8546V21.9131H39.1922V20.1607H39.926Z" fill="#717B84"/>
<path d="M41.3056 20.1607H44.078V20.8278H42.0395V24.6084H41.3056V20.1607Z" fill="#717B84"/>
<path d="M46.919 24.7329C46.5748 24.7329 46.2607 24.6736 45.9768 24.555C45.6929 24.4364 45.4453 24.2733 45.2339 24.0658C45.0285 23.8523 44.8684 23.6032 44.7537 23.3185C44.6389 23.028 44.5815 22.7166 44.5815 22.3845C44.5815 22.0524 44.6389 21.7441 44.7537 21.4594C44.8684 21.1688 45.0285 20.9197 45.2339 20.7122C45.4453 20.4987 45.6929 20.3326 45.9768 20.214C46.2607 20.0954 46.5748 20.0361 46.919 20.0361C47.2633 20.0361 47.5774 20.0954 47.8613 20.214C48.1452 20.3326 48.3898 20.4987 48.5952 20.7122C48.8066 20.9197 48.9697 21.1688 49.0844 21.4594C49.1992 21.7441 49.2566 22.0524 49.2566 22.3845C49.2566 22.7166 49.1992 23.028 49.0844 23.3185C48.9697 23.6032 48.8066 23.8523 48.5952 24.0658C48.3898 24.2733 48.1452 24.4364 47.8613 24.555C47.5774 24.6736 47.2633 24.7329 46.919 24.7329ZM46.919 24.0569C47.1546 24.0569 47.369 24.0153 47.5623 23.9323C47.7616 23.8493 47.9308 23.7337 48.0697 23.5854C48.2086 23.4312 48.3173 23.2533 48.3959 23.0517C48.4744 22.8441 48.5136 22.6217 48.5136 22.3845C48.5136 22.1414 48.4744 21.919 48.3959 21.7174C48.3173 21.5157 48.2086 21.3408 48.0697 21.1925C47.9308 21.0383 47.7616 20.9197 47.5623 20.8367C47.369 20.7537 47.1546 20.7122 46.919 20.7122C46.6835 20.7122 46.466 20.7537 46.2667 20.8367C46.0734 20.9197 45.9073 21.0383 45.7684 21.1925C45.6295 21.3408 45.5208 21.5157 45.4422 21.7174C45.3637 21.919 45.3245 22.1414 45.3245 22.3845C45.3245 22.6217 45.3637 22.8441 45.4422 23.0517C45.5208 23.2533 45.6295 23.4312 45.7684 23.5854C45.9073 23.7337 46.0734 23.8493 46.2667 23.9323C46.466 24.0153 46.6835 24.0569 46.919 24.0569Z" fill="#717B84"/>
<path d="M51.0631 23.9857H52.4765C52.6879 23.9857 52.8631 23.9264 53.002 23.8078C53.147 23.6892 53.2195 23.5172 53.2195 23.2919C53.2195 23.0724 53.147 22.9034 53.002 22.7848C52.8631 22.6603 52.6879 22.598 52.4765 22.598H51.0631V23.9857ZM51.0631 21.9931H52.404C52.6034 21.9931 52.7604 21.9368 52.8752 21.8241C52.9899 21.7114 53.0473 21.5661 53.0473 21.3882C53.0473 21.2163 52.9899 21.0739 52.8752 20.9613C52.7604 20.8427 52.6034 20.7833 52.404 20.7833H51.0631V21.9931ZM50.3746 24.6084V20.1607H52.4222C52.8208 20.1607 53.1409 20.2674 53.3825 20.4809C53.6241 20.6944 53.7449 20.9761 53.7449 21.326C53.7449 21.5513 53.6906 21.7411 53.5819 21.8953C53.4792 22.0495 53.3342 22.1681 53.147 22.2511C53.3886 22.3282 53.5788 22.4616 53.7178 22.6514C53.8567 22.8412 53.9261 23.0784 53.9261 23.363C53.9261 23.7426 53.7963 24.045 53.5366 24.2703C53.2768 24.4957 52.9295 24.6084 52.4946 24.6084H50.3746Z" fill="#717B84"/>
<path d="M57.0144 24.7329C56.6701 24.7329 56.356 24.6736 56.0721 24.555C55.7882 24.4364 55.5406 24.2733 55.3292 24.0658C55.1238 23.8523 54.9638 23.6032 54.849 23.3185C54.7342 23.028 54.6769 22.7166 54.6769 22.3845C54.6769 22.0524 54.7342 21.7441 54.849 21.4594C54.9638 21.1688 55.1238 20.9197 55.3292 20.7122C55.5406 20.4987 55.7882 20.3326 56.0721 20.214C56.356 20.0954 56.6701 20.0361 57.0144 20.0361C57.3587 20.0361 57.6727 20.0954 57.9566 20.214C58.2405 20.3326 58.4851 20.4987 58.6905 20.7122C58.9019 20.9197 59.065 21.1688 59.1797 21.4594C59.2945 21.7441 59.3519 22.0524 59.3519 22.3845C59.3519 22.7166 59.2945 23.028 59.1797 23.3185C59.065 23.6032 58.9019 23.8523 58.6905 24.0658C58.4851 24.2733 58.2405 24.4364 57.9566 24.555C57.6727 24.6736 57.3587 24.7329 57.0144 24.7329ZM57.0144 24.0569C57.2499 24.0569 57.4644 24.0153 57.6576 23.9323C57.857 23.8493 58.0261 23.7337 58.165 23.5854C58.3039 23.4312 58.4127 23.2533 58.4912 23.0517C58.5697 22.8441 58.609 22.6217 58.609 22.3845C58.609 22.1414 58.5697 21.919 58.4912 21.7174C58.4127 21.5157 58.3039 21.3408 58.165 21.1925C58.0261 21.0383 57.857 20.9197 57.6576 20.8367C57.4644 20.7537 57.2499 20.7122 57.0144 20.7122C56.7788 20.7122 56.5614 20.7537 56.362 20.8367C56.1688 20.9197 56.0027 21.0383 55.8637 21.1925C55.7248 21.3408 55.6161 21.5157 55.5376 21.7174C55.459 21.919 55.4198 22.1414 55.4198 22.3845C55.4198 22.6217 55.459 22.8441 55.5376 23.0517C55.6161 23.2533 55.7248 23.4312 55.8637 23.5854C56.0027 23.7337 56.1688 23.8493 56.362 23.9323C56.5614 24.0153 56.7788 24.0569 57.0144 24.0569Z" fill="#717B84"/>
<path d="M60.9773 21.9486H63.9037C63.8976 21.7707 63.8554 21.6047 63.7768 21.4505C63.7044 21.2963 63.6047 21.1658 63.4779 21.0591C63.3571 20.9464 63.2121 20.8604 63.043 20.8011C62.8739 20.7359 62.6896 20.7033 62.4903 20.7033C62.0917 20.7033 61.7595 20.8189 61.4937 21.0502C61.234 21.2756 61.0618 21.575 60.9773 21.9486ZM62.5356 24.7329C62.1853 24.7329 61.8652 24.6766 61.5752 24.5639C61.2913 24.4453 61.0467 24.2822 60.8414 24.0746C60.636 23.8671 60.4759 23.621 60.3612 23.3363C60.2464 23.0517 60.189 22.7403 60.189 22.4023C60.189 22.0584 60.2464 21.7441 60.3612 21.4594C60.4759 21.1688 60.636 20.9197 60.8414 20.7122C61.0528 20.4987 61.3004 20.3326 61.5843 20.214C61.8682 20.0954 62.1762 20.0361 62.5084 20.0361C62.8286 20.0361 63.1185 20.0895 63.3782 20.1963C63.644 20.2971 63.8705 20.4424 64.0577 20.6321C64.245 20.8219 64.3899 21.0502 64.4926 21.3171C64.6013 21.578 64.6557 21.8686 64.6557 22.1888C64.6557 22.3193 64.6466 22.4527 64.6285 22.5891H60.941C60.9833 23.0339 61.1464 23.3897 61.4303 23.6566C61.7202 23.9234 62.0917 24.0569 62.5447 24.0569C63.1185 24.0569 63.5654 23.8137 63.8856 23.3274L64.4654 23.7544C64.0064 24.4067 63.3631 24.7329 62.5356 24.7329Z" fill="#717B84"/>
<path d="M70.9502 22.5091L69.8992 22.5535C68.9932 22.601 68.5402 22.8767 68.5402 23.3808C68.5402 23.6002 68.6218 23.7752 68.7848 23.9056C68.9479 24.0302 69.1684 24.0924 69.4462 24.0924C69.6576 24.0924 69.8539 24.0569 70.0351 23.9857C70.2163 23.9086 70.3734 23.8078 70.5063 23.6833C70.6452 23.5587 70.7539 23.4134 70.8324 23.2474C70.9109 23.0813 70.9502 22.9034 70.9502 22.7137V22.5091ZM67.7973 23.4075C67.7973 22.9805 67.9664 22.6395 68.3047 22.3845C68.6489 22.1236 69.1533 21.9783 69.8177 21.9486L70.9502 21.9042V21.833C70.9502 21.4713 70.8445 21.1896 70.6331 20.9879C70.4277 20.7804 70.1408 20.6766 69.7724 20.6766C69.1986 20.6766 68.7879 20.9286 68.5402 21.4327L67.9241 21.1303C68.0812 20.7804 68.3228 20.5106 68.6489 20.3208C68.9751 20.131 69.3556 20.0361 69.7905 20.0361C70.0744 20.0361 70.3311 20.0776 70.5606 20.1607C70.7962 20.2437 70.9955 20.3593 71.1586 20.5076C71.3217 20.6558 71.4485 20.8367 71.5391 21.0502C71.6297 21.2578 71.675 21.492 71.675 21.7529V24.6084H70.9502V23.8967C70.7871 24.1695 70.5697 24.3771 70.2979 24.5194C70.0321 24.6617 69.7211 24.7329 69.3647 24.7329C69.1291 24.7329 68.9147 24.7003 68.7214 24.6351C68.5281 24.5758 68.362 24.4898 68.2231 24.3771C68.0902 24.2585 67.9845 24.1191 67.906 23.959C67.8335 23.793 67.7973 23.6091 67.7973 23.4075Z" fill="#717B84"/>
<path d="M73.0603 20.1607H75.8327V20.8278H73.7942V24.6084H73.0603V20.1607Z" fill="#717B84"/>
<path d="M77.1245 21.9486H80.0509C80.0449 21.7707 80.0026 21.6047 79.9241 21.4505C79.8516 21.2963 79.7519 21.1658 79.6251 21.0591C79.5043 20.9464 79.3593 20.8604 79.1902 20.8011C79.0211 20.7359 78.8368 20.7033 78.6375 20.7033C78.2389 20.7033 77.9067 20.8189 77.6409 21.0502C77.3812 21.2756 77.209 21.575 77.1245 21.9486ZM78.6828 24.7329C78.3325 24.7329 78.0124 24.6766 77.7225 24.5639C77.4386 24.4453 77.1939 24.2822 76.9886 24.0746C76.7832 23.8671 76.6232 23.621 76.5084 23.3363C76.3936 23.0517 76.3363 22.7403 76.3363 22.4023C76.3363 22.0584 76.3936 21.7441 76.5084 21.4594C76.6232 21.1688 76.7832 20.9197 76.9886 20.7122C77.2 20.4987 77.4476 20.3326 77.7315 20.214C78.0154 20.0954 78.3234 20.0361 78.6556 20.0361C78.9758 20.0361 79.2657 20.0895 79.5254 20.1963C79.7912 20.2971 80.0177 20.4424 80.2049 20.6321C80.3922 20.8219 80.5371 21.0502 80.6398 21.3171C80.7485 21.578 80.8029 21.8686 80.8029 22.1888C80.8029 22.3193 80.7938 22.4527 80.7757 22.5891H77.0882C77.1305 23.0339 77.2936 23.3897 77.5775 23.6566C77.8674 23.9234 78.2389 24.0569 78.6919 24.0569C79.2657 24.0569 79.7127 23.8137 80.0328 23.3274L80.6126 23.7544C80.1536 24.4067 79.5103 24.7329 78.6828 24.7329Z" fill="#717B84"/>
<path d="M85.7134 20.1607V24.6084H84.9795V22.5802H82.642V24.6084H81.9081V20.1607H82.642V21.9131H84.9795V20.1607H85.7134Z" fill="#717B84"/>
<path d="M90.427 20.1607V20.8189H88.8687V24.6084H88.1439V20.8189H86.5855V20.1607H90.427Z" fill="#717B84"/>
<path d="M93.2284 24.7329C92.8781 24.7329 92.5579 24.6736 92.268 24.555C91.9841 24.4364 91.7395 24.2733 91.5341 24.0658C91.3288 23.8582 91.1687 23.6121 91.0539 23.3274C90.9452 23.0369 90.8909 22.7225 90.8909 22.3845C90.8909 22.0465 90.9452 21.7352 91.0539 21.4505C91.1687 21.1599 91.3288 20.9108 91.5341 20.7033C91.7395 20.4957 91.9841 20.3326 92.268 20.214C92.5579 20.0954 92.8781 20.0361 93.2284 20.0361C93.6754 20.0361 94.0649 20.1369 94.3971 20.3386C94.7354 20.5343 95.0012 20.8189 95.1944 21.1925L94.5693 21.5484C94.3035 20.9909 93.8596 20.7122 93.2374 20.7122C92.9958 20.7122 92.7754 20.7537 92.5761 20.8367C92.3828 20.9197 92.2167 21.0383 92.0778 21.1925C91.9388 21.3408 91.8301 21.5157 91.7516 21.7174C91.6731 21.919 91.6338 22.1414 91.6338 22.3845C91.6338 22.6217 91.6731 22.8441 91.7516 23.0517C91.8301 23.2533 91.9388 23.4312 92.0778 23.5854C92.2167 23.7337 92.3828 23.8493 92.5761 23.9323C92.7754 24.0153 92.9958 24.0569 93.2374 24.0569C93.8596 24.0569 94.3035 23.7781 94.5693 23.2207L95.1944 23.5765C95.0012 23.9501 94.7354 24.2377 94.3971 24.4394C94.0649 24.6351 93.6754 24.7329 93.2284 24.7329Z" fill="#717B84"/>
<path d="M99.4429 20.1607V20.8189H97.8846V24.6084H97.1598V20.8189H95.6014V20.1607H99.4429Z" fill="#717B84"/>
<path d="M101 23.9857H102.413C102.625 23.9857 102.8 23.9264 102.939 23.8078C103.084 23.6892 103.156 23.5172 103.156 23.2919C103.156 23.0724 103.084 22.9034 102.939 22.7848C102.8 22.6603 102.625 22.598 102.413 22.598H101V23.9857ZM101 21.9931H102.341C102.54 21.9931 102.697 21.9368 102.812 21.8241C102.927 21.7114 102.984 21.5661 102.984 21.3882C102.984 21.2163 102.927 21.0739 102.812 20.9613C102.697 20.8427 102.54 20.7833 102.341 20.7833H101V21.9931ZM100.312 24.6084V20.1607H102.359C102.758 20.1607 103.078 20.2674 103.319 20.4809C103.561 20.6944 103.682 20.9761 103.682 21.326C103.682 21.5513 103.628 21.7411 103.519 21.8953C103.416 22.0495 103.271 22.1681 103.084 22.2511C103.326 22.3282 103.516 22.4616 103.655 22.6514C103.794 22.8412 103.863 23.0784 103.863 23.363C103.863 23.7426 103.733 24.045 103.473 24.2703C103.214 24.4957 102.866 24.6084 102.432 24.6084H100.312Z" fill="#717B84"/>
<path d="M106.951 24.7329C106.607 24.7329 106.293 24.6736 106.009 24.555C105.725 24.4364 105.478 24.2733 105.266 24.0658C105.061 23.8523 104.901 23.6032 104.786 23.3185C104.671 23.028 104.614 22.7166 104.614 22.3845C104.614 22.0524 104.671 21.7441 104.786 21.4594C104.901 21.1688 105.061 20.9197 105.266 20.7122C105.478 20.4987 105.725 20.3326 106.009 20.214C106.293 20.0954 106.607 20.0361 106.951 20.0361C107.296 20.0361 107.61 20.0954 107.894 20.214C108.177 20.3326 108.422 20.4987 108.627 20.7122C108.839 20.9197 109.002 21.1688 109.117 21.4594C109.231 21.7441 109.289 22.0524 109.289 22.3845C109.289 22.7166 109.231 23.028 109.117 23.3185C109.002 23.6032 108.839 23.8523 108.627 24.0658C108.422 24.2733 108.177 24.4364 107.894 24.555C107.61 24.6736 107.296 24.7329 106.951 24.7329ZM106.951 24.0569C107.187 24.0569 107.401 24.0153 107.595 23.9323C107.794 23.8493 107.963 23.7337 108.102 23.5854C108.241 23.4312 108.35 23.2533 108.428 23.0517C108.507 22.8441 108.546 22.6217 108.546 22.3845C108.546 22.1414 108.507 21.919 108.428 21.7174C108.35 21.5157 108.241 21.3408 108.102 21.1925C107.963 21.0383 107.794 20.9197 107.595 20.8367C107.401 20.7537 107.187 20.7122 106.951 20.7122C106.716 20.7122 106.498 20.7537 106.299 20.8367C106.106 20.9197 105.94 21.0383 105.801 21.1925C105.662 21.3408 105.553 21.5157 105.475 21.7174C105.396 21.919 105.357 22.1414 105.357 22.3845C105.357 22.6217 105.396 22.8441 105.475 23.0517C105.553 23.2533 105.662 23.4312 105.801 23.5854C105.94 23.7337 106.106 23.8493 106.299 23.9323C106.498 24.0153 106.716 24.0569 106.951 24.0569Z" fill="#717B84"/>
</g>
</g>
</svg>
