<svg width="454" height="455" viewBox="0 0 454 455" fill="none" xmlns="http://www.w3.org/2000/svg">
<g opacity="0.6">
<path opacity="0.4" d="M228.323 406.465C129.593 406.465 49.2681 326.036 49.2681 227.277H98.7177C98.7177 252.934 106.32 278.014 120.562 299.347C134.805 320.68 155.048 337.308 178.733 347.126C202.418 356.945 228.48 359.513 253.624 354.508C278.767 349.503 301.863 337.148 319.99 319.006C338.118 300.863 350.463 277.748 355.464 252.584C360.465 227.42 357.899 201.337 348.088 177.633C338.278 153.929 321.664 133.669 300.348 119.415C279.033 105.161 253.972 97.5523 228.336 97.5523V48.1274C327.067 48.1274 407.391 128.556 407.391 227.328C407.391 326.1 327.054 406.465 228.323 406.465Z" fill="#107A88"/>
<path opacity="0.2" d="M228.751 357.183C194.295 357.183 161.25 343.484 136.886 319.1C112.522 294.716 98.8345 261.644 98.8345 227.16C98.8345 192.676 112.522 159.604 136.886 135.22C161.25 110.836 194.295 97.1375 228.751 97.1375V146.627C207.41 146.627 186.943 155.112 171.852 170.215C156.762 185.318 148.284 205.801 148.284 227.16C148.284 248.519 156.762 269.003 171.852 284.105C186.943 299.208 207.41 307.693 228.751 307.693V357.183Z" fill="#107A88"/>
<path opacity="0.2" d="M226.975 454.32V404.869C324.863 404.869 404.553 325.167 404.553 227.147C404.553 129.127 324.915 49.4249 226.975 49.4249C129.035 49.4249 49.3978 129.127 49.3978 227.147H0C0 101.898 101.829 0 226.975 0C352.122 0 453.95 101.898 453.95 227.147C453.95 352.396 352.122 454.32 226.975 454.32Z" fill="#107A88"/>
</g>
</svg>
