<svg width="454" height="455" fill="none" xmlns="http://www.w3.org/2000/svg"><g opacity=".6" fill="#107A88"><path opacity=".4" d="M228.323 406.465c-98.73 0-179.055-80.429-179.055-179.188h49.45c0 25.657 7.602 50.737 21.844 72.07a129.64 129.64 0 0058.171 47.779 129.523 129.523 0 0074.891 7.382 129.581 129.581 0 0066.366-35.502 129.757 129.757 0 0035.474-66.422 129.82 129.82 0 00-7.376-74.951 129.694 129.694 0 00-47.74-58.218 129.544 129.544 0 00-72.012-21.863V48.127c98.731 0 179.055 80.429 179.055 179.201 0 98.772-80.337 179.137-179.068 179.137z"/><path opacity=".2" d="M228.751 357.183a129.863 129.863 0 01-91.865-38.083 130.077 130.077 0 01-38.051-91.94 130.077 130.077 0 0138.051-91.94 129.863 129.863 0 0191.865-38.082v49.489a80.435 80.435 0 00-56.899 23.588 80.567 80.567 0 00-23.568 56.945 80.565 80.565 0 0023.568 56.945 80.435 80.435 0 0056.899 23.588v49.49z"/><path opacity=".2" d="M226.975 454.32v-49.451c97.888 0 177.578-79.702 177.578-177.722 0-98.02-79.638-177.722-177.578-177.722S49.398 129.127 49.398 227.147H0C0 101.898 101.829 0 226.975 0 352.122 0 453.95 101.898 453.95 227.147S352.122 454.32 226.975 454.32z"/></g></svg>