<?xml version="1.0" encoding="utf-8"?><svg viewBox="0 0 110 32" xmlns="http://www.w3.org/2000/svg" xmlns:xlink="http://www.w3.org/1999/xlink"><style>:root>svg{display:none}:root>svg:target{display:block}</style><svg viewBox="0 0 14 14" id="icon-cross" xmlns="http://www.w3.org/2000/svg"><path fill-rule="evenodd" clip-rule="evenodd" d="m8.414 7 5.293-5.293A.999.999 0 1 0 12.293.293L7 5.586 1.707.293A.999.999 0 1 0 .293 1.707L5.586 7 .293 12.293a.999.999 0 1 0 1.414 1.414L7 8.414l5.293 5.293a.997.997 0 0 0 1.414 0 .999.999 0 0 0 0-1.414L8.414 7Z" fill="currentColor"/></svg><svg fill="none" viewBox="0 0 16 22" id="icon-up" xmlns="http://www.w3.org/2000/svg"><path d="M9.031.585a1.444 1.444 0 0 0-.477-.303 1.358 1.358 0 0 0-1.097 0c-.178.069-.34.172-.477.303L1.202 6.363a1.45 1.45 0 0 0 2.051 2.051l3.308-3.322v15.297a1.444 1.444 0 1 0 2.889 0V5.092l3.308 3.322a1.45 1.45 0 0 0 2.05-2.051L9.032.585Z" fill="currentColor"/></svg><svg fill="none" viewBox="0 0 110 27" id="logo" xmlns="http://www.w3.org/2000/svg"><g fill="#141414"><path d="M.712 0h8.287v2.376H3.352v2.736h4.913v2.376H3.352V12.6H.712V0ZM16.61 12.888c-.77 0-1.48-.114-2.127-.342a4.904 4.904 0 0 1-1.687-.99 4.627 4.627 0 0 1-1.118-1.638c-.27-.648-.404-1.392-.404-2.232V0h2.64v7.488c0 .996.245 1.746.734 2.25.5.492 1.16.738 1.98.738.806 0 1.454-.246 1.943-.738.489-.504.733-1.254.733-2.25V0h2.64v7.686c0 .84-.134 1.584-.403 2.232a4.627 4.627 0 0 1-1.119 1.638 4.903 4.903 0 0 1-1.686.99 6.366 6.366 0 0 1-2.127.342ZM34.124 0v2.376h-3.776V12.6h-2.64V2.376H23.93V0h10.193ZM41.442 12.888c-.77 0-1.48-.114-2.127-.342a4.904 4.904 0 0 1-1.687-.99 4.628 4.628 0 0 1-1.118-1.638c-.269-.648-.403-1.392-.403-2.232V0h2.64v7.488c0 .996.244 1.746.733 2.25.501.492 1.161.738 1.98.738.807 0 1.454-.246 1.943-.738.49-.504.734-1.254.734-2.25V0h2.64v7.686c0 .84-.135 1.584-.404 2.232a4.626 4.626 0 0 1-1.118 1.638 4.904 4.904 0 0 1-1.687.99 6.365 6.365 0 0 1-2.126.342ZM52.137 6.012h2.621c.502 0 .935-.156 1.302-.468.367-.324.55-.774.55-1.35 0-.576-.183-1.032-.55-1.368a1.828 1.828 0 0 0-1.302-.522h-2.621v3.708Zm2.255 2.304h-2.255V12.6h-2.53V0h5.206c.66 0 1.26.102 1.797.306.55.192 1.014.474 1.393.846.392.36.691.798.899 1.314.22.516.33 1.092.33 1.728 0 .912-.208 1.686-.624 2.322a3.764 3.764 0 0 1-1.723 1.422l3.062 4.662h-2.842l-2.713-4.284ZM61.71 0h8.47v2.376h-8.47V0ZM64.35 4.878h5.83v2.376h-8.47V4.878h2.64ZM64.35 10.224h5.83V12.6h-8.47v-2.376h2.64Z"/></g><g fill="#107A88"><path d="M77.464 12.889c-1.86 0-3.165-.732-3.916-2.195l1.614-.973c.224.44.537.775.94 1.006.404.231.875.346 1.412.346.437 0 .79-.071 1.06-.214.268-.143.403-.335.403-.578 0-.23-.124-.406-.37-.527a4.467 4.467 0 0 0-.924-.314c-.37-.088-.774-.181-1.21-.28a5.85 5.85 0 0 1-1.194-.413 2.861 2.861 0 0 1-.924-.726c-.246-.308-.37-.715-.37-1.221 0-.396.079-.753.236-1.072.168-.32.397-.594.689-.825a3.255 3.255 0 0 1 1.075-.528 4.813 4.813 0 0 1 1.429-.198c1.647 0 2.829.632 3.546 1.897l-1.614 1.007a2.133 2.133 0 0 0-.773-.825c-.325-.198-.722-.297-1.193-.297-.403 0-.728.071-.975.214-.246.132-.37.303-.37.512 0 .209.124.368.37.478.247.11.555.209.925.297l1.21.28c.436.1.84.243 1.21.43.38.187.694.44.94.759.247.308.37.72.37 1.237 0 .407-.084.781-.252 1.122-.168.33-.409.616-.722.858a3.648 3.648 0 0 1-1.143.544 5.11 5.11 0 0 1-1.479.199ZM85.378 9.094c0 .594.13 1.017.387 1.27.257.253.678.38 1.26.38h.555v2.013h-.857c-1.222 0-2.118-.281-2.69-.842-.56-.572-.84-1.457-.84-2.656V6.322H81.8V4.408h1.394v-2.31h2.185v2.31h2.135v1.914h-2.135v2.772ZM94.197 9.011l-1.429.066c-.784.033-1.327.16-1.63.38-.291.209-.437.456-.437.742 0 .297.124.534.37.71.246.175.577.263.992.263.616 0 1.126-.192 1.529-.577.403-.396.605-.918.605-1.567V9.01Zm-5.613 1.32c0-.803.32-1.446.958-1.93.65-.495 1.602-.765 2.857-.809l1.798-.066V7.46c0-.462-.157-.836-.47-1.122-.303-.297-.723-.445-1.261-.445-.896 0-1.535.401-1.916 1.204l-1.714-.825c.325-.693.8-1.215 1.428-1.567.639-.352 1.395-.528 2.27-.528 1.175 0 2.094.302 2.755.907s.992 1.436.992 2.492v5.082h-2.084v-1.024c-.616.836-1.507 1.255-2.672 1.255-.47 0-.89-.066-1.26-.198a2.834 2.834 0 0 1-.925-.545 2.43 2.43 0 0 1-.571-.809 2.684 2.684 0 0 1-.185-1.006ZM100.869 4.408h2.101v1.914h-2.101v6.336h-2.184V6.322h-1.328V4.408h1.328v-.264c0-2.332 1.16-3.498 3.478-3.498h.74v1.947h-.572c-.537 0-.918.126-1.142.379-.213.242-.32.649-.32 1.221v.215ZM107.188 4.408h2.101v1.914h-2.101v6.336h-2.185V6.322h-1.328V4.408h1.328v-.264c0-2.332 1.16-3.498 3.479-3.498h.739v1.947h-.571c-.538 0-.919.126-1.143.379-.213.242-.319.649-.319 1.221v.215Z"/></g><g fill="#717B84"><path d="M3.022 24.057c.236 0 .45-.042.644-.125.193-.083.359-.198.498-.347.139-.154.244-.332.317-.533a1.87 1.87 0 0 0 .118-.668c0-.243-.04-.465-.118-.667a1.5 1.5 0 0 0-.317-.524 1.413 1.413 0 0 0-.498-.356 1.614 1.614 0 0 0-.644-.125c-.235 0-.45.042-.643.125-.193.083-.36.201-.498.355a1.616 1.616 0 0 0-.326.525 1.96 1.96 0 0 0-.11.668c0 .237.037.46.11.667.078.201.187.38.326.533.139.149.305.264.498.347.193.083.408.125.643.125Zm.1.676a2.05 2.05 0 0 1-.979-.231 1.91 1.91 0 0 1-.697-.65v2.535H.712v-6.226h.734v.756a1.91 1.91 0 0 1 .697-.65 2.05 2.05 0 0 1 .979-.23 2.173 2.173 0 0 1 1.585.666c.2.208.354.457.463.748.114.284.172.596.172.933 0 .338-.058.653-.172.943a2.17 2.17 0 0 1-.463.739 2.175 2.175 0 0 1-1.585.667ZM6.997 21.949h2.926a1.172 1.172 0 0 0-.127-.498 1.136 1.136 0 0 0-.299-.392 1.22 1.22 0 0 0-.434-.258 1.524 1.524 0 0 0-.553-.098c-.399 0-.73.116-.997.347-.26.226-.432.525-.516.899Zm1.558 2.784c-.35 0-.67-.056-.96-.17a2.227 2.227 0 0 1-.734-.488 2.212 2.212 0 0 1-.48-.739 2.475 2.475 0 0 1-.172-.934 2.5 2.5 0 0 1 .172-.943 2.193 2.193 0 0 1 1.223-1.245c.284-.119.592-.178.924-.178.32 0 .61.053.87.16a1.874 1.874 0 0 1 1.114 1.121c.109.261.163.552.163.872 0 .13-.009.264-.027.4H6.961c.042.445.205.8.489 1.068.29.266.661.4 1.114.4.574 0 1.021-.243 1.341-.73l.58.427c-.459.653-1.102.979-1.93.979ZM13.257 22.642h-.743v1.966h-.733v-4.447h.733v1.823h.734l1.513-1.823h.843l-1.767 2.108 1.803 2.34h-.879l-1.504-1.967ZM18.824 24.057c.236 0 .45-.042.644-.125.193-.083.36-.198.498-.347.139-.154.245-.332.317-.533a1.87 1.87 0 0 0 .118-.668c0-.243-.04-.465-.118-.667a1.5 1.5 0 0 0-.317-.524 1.412 1.412 0 0 0-.498-.356 1.614 1.614 0 0 0-.644-.125c-.235 0-.45.042-.643.125-.193.083-.36.201-.498.355a1.616 1.616 0 0 0-.326.525 1.96 1.96 0 0 0-.11.668c0 .237.037.46.11.667.078.201.187.38.326.533.139.149.305.264.498.347.193.083.408.125.643.125Zm.1.676a2.05 2.05 0 0 1-.978-.231 1.91 1.91 0 0 1-.698-.65v2.535h-.734v-6.226h.734v.756a1.91 1.91 0 0 1 .698-.65 2.05 2.05 0 0 1 .978-.23 2.173 2.173 0 0 1 1.586.666c.199.208.353.457.462.748.114.284.172.596.172.933 0 .338-.058.653-.172.943-.11.285-.263.531-.462.739a2.175 2.175 0 0 1-1.586.667ZM22.613 26.387l.743-1.859-1.775-4.367h.779l1.368 3.46 1.304-3.46h.77l-2.427 6.226h-.762ZM30.014 20.16v.659h-1.558v3.79h-.725v-3.79h-1.558v-.658h3.841ZM31.617 20.16v3.399L34 20.16h.742v4.447h-.733V21.21l-2.383 3.398h-.743v-4.447h.734ZM39.926 20.16v4.448h-.734V22.58h-2.337v2.028h-.734v-4.447h.734v1.752h2.337v-1.752h.734ZM41.306 20.16h2.772v.668h-2.039v3.78h-.733v-4.447ZM46.919 24.733c-.344 0-.658-.06-.942-.178a2.332 2.332 0 0 1-.743-.49 2.313 2.313 0 0 1-.48-.747 2.518 2.518 0 0 1-.172-.934c0-.332.057-.64.172-.925a2.191 2.191 0 0 1 1.223-1.245c.284-.119.598-.178.942-.178s.658.06.942.178c.284.119.529.285.734.498.212.208.375.457.49.747.114.285.172.593.172.925 0 .333-.058.644-.173.934a2.228 2.228 0 0 1-1.223 1.236 2.421 2.421 0 0 1-.942.179Zm0-.676c.236 0 .45-.042.643-.125.2-.083.369-.198.508-.347.139-.154.247-.332.326-.533a1.87 1.87 0 0 0 .118-.668c0-.243-.04-.465-.118-.667a1.618 1.618 0 0 0-.326-.524 1.394 1.394 0 0 0-.508-.356 1.614 1.614 0 0 0-.643-.125 1.68 1.68 0 0 0-.652.125c-.194.083-.36.201-.499.355a1.618 1.618 0 0 0-.326.525 1.824 1.824 0 0 0-.117.668c0 .237.039.46.117.667.079.201.188.38.326.533.14.149.305.264.499.347.199.083.416.125.652.125ZM51.063 23.986h1.413a.78.78 0 0 0 .526-.178c.145-.119.217-.29.217-.516 0-.22-.072-.389-.217-.507a.758.758 0 0 0-.526-.187h-1.413v1.388Zm0-1.993h1.341c.2 0 .356-.056.471-.169a.584.584 0 0 0 .172-.436.573.573 0 0 0-.172-.427c-.115-.118-.272-.178-.471-.178h-1.34v1.21Zm-.688 2.615v-4.447h2.047c.399 0 .719.106.96.32.242.213.363.495.363.845a.963.963 0 0 1-.598.925 1.1 1.1 0 0 1 .57.4c.14.19.21.427.21.712 0 .38-.13.682-.39.907-.26.226-.608.338-1.042.338h-2.12ZM57.014 24.733c-.344 0-.658-.06-.942-.178a2.332 2.332 0 0 1-.743-.49 2.314 2.314 0 0 1-.48-.747 2.518 2.518 0 0 1-.172-.934c0-.332.057-.64.172-.925a2.193 2.193 0 0 1 1.223-1.245c.284-.119.598-.178.942-.178.345 0 .659.06.943.178.283.119.528.285.733.498.212.208.375.457.49.747.114.285.172.593.172.925 0 .333-.057.644-.172.934a2.228 2.228 0 0 1-1.223 1.236 2.42 2.42 0 0 1-.943.179Zm0-.676c.236 0 .45-.042.644-.125.199-.083.368-.198.507-.347.139-.154.248-.332.326-.533a1.87 1.87 0 0 0 .118-.668c0-.243-.04-.465-.118-.667a1.616 1.616 0 0 0-.326-.524 1.393 1.393 0 0 0-.507-.356 1.613 1.613 0 0 0-.644-.125 1.68 1.68 0 0 0-.652.125c-.193.083-.36.201-.498.355a1.616 1.616 0 0 0-.326.525 1.822 1.822 0 0 0-.118.668c0 .237.039.46.118.667.078.201.187.38.326.533.139.149.305.264.498.347.2.083.417.125.652.125ZM60.977 21.949h2.927a1.171 1.171 0 0 0-.127-.498 1.135 1.135 0 0 0-.3-.392 1.22 1.22 0 0 0-.434-.258 1.524 1.524 0 0 0-.553-.098c-.398 0-.73.116-.996.347-.26.226-.432.525-.517.899Zm1.559 2.784c-.35 0-.67-.056-.96-.17a2.226 2.226 0 0 1-.735-.488 2.21 2.21 0 0 1-.48-.739 2.474 2.474 0 0 1-.172-.934 2.5 2.5 0 0 1 .172-.943 2.191 2.191 0 0 1 1.223-1.245c.284-.119.592-.178.924-.178.32 0 .61.053.87.16a1.874 1.874 0 0 1 1.115 1.121c.108.261.163.552.163.872 0 .13-.01.264-.028.4h-3.687c.042.445.205.8.49 1.068.29.266.66.4 1.114.4.573 0 1.02-.243 1.34-.73l.58.427c-.459.653-1.102.979-1.93.979ZM70.95 22.51l-1.05.043c-.907.048-1.36.324-1.36.828 0 .22.082.394.245.525.163.124.383.186.661.186.212 0 .408-.035.59-.106.18-.077.337-.178.47-.303.14-.124.248-.27.326-.436.079-.166.118-.344.118-.533v-.205Zm-3.153.897c0-.427.17-.767.508-1.023.344-.26.848-.406 1.513-.435l1.132-.045v-.071c0-.362-.106-.643-.317-.845-.205-.208-.492-.311-.86-.311-.574 0-.985.252-1.233.756l-.616-.303c.157-.35.399-.62.725-.81.326-.189.707-.284 1.141-.284.284 0 .541.042.77.125.236.083.436.198.599.347.163.148.29.329.38.542.09.208.136.442.136.703v2.855h-.725v-.711c-.163.273-.38.48-.652.622a1.948 1.948 0 0 1-.933.214c-.236 0-.45-.033-.644-.098a1.461 1.461 0 0 1-.498-.258 1.354 1.354 0 0 1-.317-.418 1.364 1.364 0 0 1-.109-.552ZM73.06 20.16h2.773v.668h-2.039v3.78h-.734v-4.447ZM77.124 21.949h2.927a1.171 1.171 0 0 0-.127-.498 1.137 1.137 0 0 0-.299-.392 1.22 1.22 0 0 0-.435-.258 1.524 1.524 0 0 0-.552-.098c-.4 0-.731.116-.997.347-.26.226-.432.525-.517.899Zm1.559 2.784c-.35 0-.67-.056-.96-.17a2.226 2.226 0 0 1-.734-.488 2.212 2.212 0 0 1-.48-.739 2.474 2.474 0 0 1-.173-.934 2.5 2.5 0 0 1 .172-.943 2.193 2.193 0 0 1 1.224-1.245c.283-.119.591-.178.924-.178.32 0 .61.053.87.16a1.874 1.874 0 0 1 1.114 1.121c.109.261.163.552.163.872 0 .13-.01.264-.027.4h-3.688c.043.445.206.8.49 1.068.29.266.66.4 1.114.4.574 0 1.02-.243 1.34-.73l.58.427c-.458.653-1.102.979-1.93.979ZM85.713 20.16v4.448h-.733V22.58h-2.338v2.028h-.734v-4.447h.734v1.752h2.338v-1.752h.733ZM90.427 20.16v.659h-1.558v3.79h-.725v-3.79h-1.559v-.658h3.842ZM93.228 24.733c-.35 0-.67-.06-.96-.178a2.228 2.228 0 0 1-.734-.49 2.215 2.215 0 0 1-.48-.738 2.67 2.67 0 0 1-.163-.943c0-.337.054-.649.163-.933.115-.291.275-.54.48-.748.206-.207.45-.37.734-.489.29-.119.61-.178.96-.178.447 0 .837.1 1.17.303.337.195.603.48.796.854l-.625.355c-.266-.557-.71-.836-1.332-.836-.241 0-.462.042-.66.125-.194.083-.36.201-.5.355a1.614 1.614 0 0 0-.325.525 1.824 1.824 0 0 0-.118.668c0 .237.04.46.118.667.078.201.187.38.326.533.139.149.305.264.498.347.2.083.42.125.661.125.623 0 1.067-.279 1.332-.836l.625.355a2.102 2.102 0 0 1-.797.863c-.332.196-.722.294-1.169.294ZM99.443 20.16v.659h-1.558v3.79h-.725v-3.79H95.6v-.658h3.842ZM101 23.986h1.413c.212 0 .387-.06.526-.178.145-.119.217-.29.217-.516 0-.22-.072-.389-.217-.507a.758.758 0 0 0-.526-.187H101v1.388Zm0-1.993h1.341c.199 0 .356-.056.471-.169a.583.583 0 0 0 .172-.436.572.572 0 0 0-.172-.427c-.115-.118-.272-.178-.471-.178H101v1.21Zm-.688 2.615v-4.447h2.047c.399 0 .719.106.96.32.242.213.363.495.363.845a.961.961 0 0 1-.598.925c.242.077.432.21.571.4.139.19.208.427.208.712 0 .38-.13.682-.39.907-.259.226-.607.338-1.041.338h-2.12ZM106.951 24.733a2.338 2.338 0 0 1-1.685-.667 2.324 2.324 0 0 1-.48-.747 2.514 2.514 0 0 1-.172-.934c0-.333.057-.64.172-.926a2.201 2.201 0 0 1 1.223-1.245c.284-.119.598-.178.942-.178.345 0 .659.06.943.178.283.119.528.285.733.498.212.208.375.457.49.747.114.285.172.593.172.925 0 .333-.058.644-.172.934a2.238 2.238 0 0 1-1.223 1.237 2.423 2.423 0 0 1-.943.178Zm0-.676c.236 0 .45-.042.644-.125a1.45 1.45 0 0 0 .507-.347c.139-.154.248-.332.326-.533a1.86 1.86 0 0 0 .118-.668c0-.243-.039-.465-.118-.667a1.606 1.606 0 0 0-.326-.524 1.396 1.396 0 0 0-.507-.356 1.618 1.618 0 0 0-.644-.125 1.68 1.68 0 0 0-.652.125 1.415 1.415 0 0 0-.498.355 1.606 1.606 0 0 0-.326.525 1.814 1.814 0 0 0-.118.668c0 .237.039.46.118.667.078.201.187.38.326.533.139.149.305.264.498.347.199.083.417.125.652.125Z"/></g></svg><svg fill="none" viewBox="0 0 88 30" id="logo-gb" xmlns="http://www.w3.org/2000/svg"><g clip-path="url(#ca)"><path d="M38.009 7.453 34.58 3.96H30.42l5.421 5.85 2.168-2.357ZM34.321 3.11 31.745 0H11.742L9.227 3.11H34.32Z" fill="#FF744F"/><path d="M2.198 4.892 0 7.449l16.137 19.08 2.133-2.558L2.198 4.891ZM32.87 8.329 16.706 27.578 18.826 30 35.08 10.694 32.87 8.329ZM4.991 6.617 10.486 0H6.23L2.928 4.069 4.99 6.617ZM26.458 14.558c-.773-1.45-2.437-2.248-4.657-2.248h-3.944V9.043h8.093V6.791H15.39v12.17l1.702 2.03h3.888l2.103-2.47a6.35 6.35 0 0 1-1.95.24h-3.276v-4.356h3.723c1.842 0 2.871.71 2.871 2.091a3.507 3.507 0 0 1-.03.436l2.037-2.374Z" fill="#3F4F8B"/><path d="M21.429 4.034h-9.526v10.768l2.467 2.94V6.077h7.059V4.034Z" fill="#3F4F8B"/><g fill="#141414"><path d="M51.562 6.8h-3v5.867h-1.097v-6.72h4.097V6.8ZM54.583 12.667H53.58v-3.98h-1.326a13.693 13.693 0 0 1-.172 1.54c-.075.428-.165.792-.271 1.091a3.052 3.052 0 0 1-.355.728c-.13.184-.269.327-.415.43a1.254 1.254 0 0 1-.453.205 2.104 2.104 0 0 1-.462.051c-.302 0-.452-.05-.452-.15v-.63h.26c.104 0 .208-.016.314-.05a.776.776 0 0 0 .312-.201c.1-.103.195-.246.285-.43a3.5 3.5 0 0 0 .252-.723c.078-.302.145-.667.2-1.097.057-.432.1-.947.131-1.544h3.155v4.76ZM58.114 10.585c-.358.013-.66.042-.906.09a2.426 2.426 0 0 0-.597.172.791.791 0 0 0-.331.247.554.554 0 0 0-.098.317.74.74 0 0 0 .051.29.586.586 0 0 0 .15.196c.065.05.14.087.223.112.087.022.182.032.285.032.261 0 .485-.048.672-.144.19-.1.373-.243.55-.43v-.882Zm-2.66-2.016c.538-.5 1.179-.75 1.922-.75.274 0 .517.044.728.134.215.088.394.212.537.374.146.162.257.354.331.578.078.221.117.467.117.738v3.024h-.448a.457.457 0 0 1-.22-.042c-.05-.031-.091-.092-.125-.182l-.098-.388a4.82 4.82 0 0 1-.36.294 2.32 2.32 0 0 1-.368.215c-.125.06-.26.103-.406.13a2.246 2.246 0 0 1-.476.047c-.193 0-.374-.026-.542-.079a1.204 1.204 0 0 1-.429-.238 1.187 1.187 0 0 1-.29-.401 1.405 1.405 0 0 1-.102-.56c0-.184.048-.363.145-.537.1-.174.261-.33.485-.467.227-.14.524-.255.891-.345.37-.09.826-.141 1.368-.154v-.317c0-.342-.073-.598-.22-.766-.146-.168-.36-.252-.644-.252-.193 0-.354.025-.485.075-.13.047-.244.098-.34.154a4.9 4.9 0 0 0-.257.159.442.442 0 0 1-.238.07.305.305 0 0 1-.178-.052.49.49 0 0 1-.116-.135l-.182-.327ZM61.921 11.971c.274 0 .49-.065.649-.196a.66.66 0 0 0 .242-.536.85.85 0 0 0-.042-.27.48.48 0 0 0-.144-.216.7.7 0 0 0-.276-.144 1.48 1.48 0 0 0-.424-.052h-.938v1.414h.933Zm-.933-3.402v1.358h.826c.124 0 .238-.017.34-.05a.871.871 0 0 0 .271-.15.677.677 0 0 0 .2-.756.488.488 0 0 0-.144-.206.694.694 0 0 0-.261-.14 1.265 1.265 0 0 0-.406-.056h-.826Zm.858-.662c.296 0 .551.03.766.088.214.056.39.136.527.238.14.103.243.224.308.364.065.14.098.291.098.453 0 .103-.014.21-.042.322-.028.112-.076.22-.145.322-.068.1-.161.191-.28.275-.115.084-.263.15-.443.196.34.063.607.187.803.374.199.183.298.43.298.737 0 .237-.048.442-.144.616a1.261 1.261 0 0 1-.397.434c-.165.115-.358.2-.579.257a2.763 2.763 0 0 1-.69.084H60.03v-4.76h1.815ZM68.515 7.907v4.76h-.998v-2.16h-2.058v2.16h-1.004v-4.76h1.004V9.75h2.058V7.907h.998ZM71.398 11.939c.147 0 .274-.019.383-.056a.814.814 0 0 0 .275-.159.61.61 0 0 0 .164-.243.823.823 0 0 0 .004-.588.559.559 0 0 0-.154-.233.68.68 0 0 0-.27-.159 1.218 1.218 0 0 0-.411-.06h-.929v1.498h.938Zm-.014-2.222c.33 0 .609.04.836.122.227.078.41.183.55.317.14.134.242.29.304.467.062.174.093.356.093.546 0 .22-.039.423-.117.606-.077.18-.192.338-.345.472-.15.134-.334.238-.555.312a2.404 2.404 0 0 1-.752.108h-1.89v-4.76h.952v1.81h.924Zm3.734-1.81v4.76h-1.004v-4.76h1.004ZM80.297 7.907v4.76h-1.003V9.685a3.249 3.249 0 0 1 .037-.453 3.772 3.772 0 0 1-.093.191c-.028.056-.06.108-.094.154l-2.067 2.842a.836.836 0 0 1-.15.173.316.316 0 0 1-.21.08h-.606V7.906h1.003v2.982c0 .065-.004.138-.014.22-.006.08-.015.16-.028.242.063-.143.126-.262.192-.355L79.33 8.16a.7.7 0 0 1 .15-.173.316.316 0 0 1 .21-.08h.606ZM78.262 6.72c.122 0 .223-.012.304-.037a.435.435 0 0 0 .2-.13.58.58 0 0 0 .108-.239c.021-.1.032-.222.032-.368h.588a.17.17 0 0 1 .159.093c.034.06.051.125.051.196a.893.893 0 0 1-.387.751 1.477 1.477 0 0 1-.457.206 2.35 2.35 0 0 1-.598.07c-.22 0-.421-.024-.602-.07a1.483 1.483 0 0 1-.452-.206.98.98 0 0 1-.29-.322.928.928 0 0 1-.098-.429c0-.071.017-.137.052-.196a.17.17 0 0 1 .158-.093h.588c0 .146.011.269.033.368a.578.578 0 0 0 .107.238c.05.06.115.103.196.131.084.025.187.037.308.037ZM49.471 20.661c.433 0 .756-.135.97-.406.216-.273.323-.667.323-1.18 0-.507-.104-.898-.313-1.172-.208-.276-.524-.415-.947-.415-.417 0-.74.128-.97.383-.228.255-.341.628-.341 1.12 0 .535.105.947.317 1.236.215.29.535.434.961.434Zm.332-5.063a2.19 2.19 0 0 0-.78.187 1.547 1.547 0 0 0-.536.415c-.14.174-.248.383-.322.625a3.362 3.362 0 0 0-.126.812c.155-.27.38-.486.676-.648.296-.162.641-.243 1.036-.243.318 0 .602.056.854.168.252.112.465.27.64.471.177.203.312.447.406.733.096.286.144.604.144.952 0 .355-.056.677-.168.966a2.1 2.1 0 0 1-.466.737 2.054 2.054 0 0 1-.733.467 2.672 2.672 0 0 1-.957.163c-.333 0-.64-.054-.924-.163a1.85 1.85 0 0 1-.737-.537c-.209-.248-.372-.574-.49-.975-.115-.401-.173-.893-.173-1.475 0-.491.045-.945.136-1.362.09-.417.236-.781.438-1.092.202-.314.467-.566.794-.756.33-.193.73-.308 1.204-.346l1.694-.14.056.523a.455.455 0 0 1-.052.29c-.043.077-.121.12-.233.125l-1.381.103ZM56.563 16.573l-2.622 6.114a.477.477 0 0 1-.126.168c-.047.04-.12.06-.22.06h-.742l.878-1.904-1.942-4.438h.873c.084 0 .148.02.191.061.047.037.081.083.103.135l1.134 2.702c.028.078.053.156.075.234.025.074.048.152.07.233l.075-.238c.024-.078.052-.155.084-.233l1.087-2.698a.315.315 0 0 1 .107-.14.294.294 0 0 1 .173-.056h.802Z"/><path d="M61.071 21.333h-.961a.275.275 0 0 1-.187-.06.556.556 0 0 1-.107-.136l-1.097-1.759a1.058 1.058 0 0 1-.112.275l-.994 1.484a.81.81 0 0 1-.117.136.22.22 0 0 1-.163.06h-.896l1.647-2.454-1.582-2.306h.962c.078 0 .133.013.168.038.037.022.07.056.098.102l1.078 1.68c.028-.102.071-.2.13-.294l.91-1.367c.063-.106.142-.159.238-.159h.92l-1.582 2.264 1.647 2.496ZM64.676 17.33H62.52v4.003h-1.003v-4.76h3.159v.756ZM67.673 19.252c-.358.013-.66.042-.905.089a2.425 2.425 0 0 0-.598.172.792.792 0 0 0-.331.248.554.554 0 0 0-.098.317.74.74 0 0 0 .051.29.585.585 0 0 0 .15.195c.065.05.14.088.224.112.087.022.182.033.284.033.262 0 .486-.048.672-.145.19-.1.374-.242.551-.429v-.882Zm-2.66-2.016c.538-.5 1.18-.751 1.923-.751.273 0 .516.045.728.135.214.087.393.212.536.373.147.162.257.355.332.58.078.22.116.466.116.736v3.024H68.2a.457.457 0 0 1-.219-.042c-.05-.03-.092-.091-.126-.182l-.098-.387a4.819 4.819 0 0 1-.36.294 2.317 2.317 0 0 1-.368.215c-.124.059-.26.102-.406.13a2.238 2.238 0 0 1-.476.047c-.193 0-.373-.026-.541-.08a1.204 1.204 0 0 1-.43-.237 1.187 1.187 0 0 1-.289-.402 1.406 1.406 0 0 1-.103-.56c0-.183.049-.362.145-.536.1-.174.261-.33.485-.467.227-.14.525-.255.892-.345a6.51 6.51 0 0 1 1.367-.154v-.318c0-.342-.073-.597-.22-.765-.145-.168-.36-.252-.643-.252-.193 0-.355.025-.486.075-.13.046-.244.098-.34.154a5.006 5.006 0 0 0-.257.158.441.441 0 0 1-.238.07.305.305 0 0 1-.177-.05.49.49 0 0 1-.117-.136l-.182-.327ZM73.893 21.333H72.89v-3.98h-1.326a13.67 13.67 0 0 1-.172 1.54c-.075.43-.165.793-.27 1.092a3.054 3.054 0 0 1-.356.728c-.13.183-.269.326-.415.43a1.256 1.256 0 0 1-.453.204 2.099 2.099 0 0 1-.462.052c-.301 0-.452-.05-.452-.15v-.63h.261c.103 0 .207-.017.313-.05a.775.775 0 0 0 .312-.202c.1-.102.195-.245.285-.429.093-.183.177-.425.252-.723.078-.302.145-.668.2-1.097.057-.432.1-.947.131-1.545h3.155v4.76ZM78.903 17.33h-1.755v4.003h-1.003V17.33h-1.76v-.756h4.518v.756ZM82.363 18.417c0-.168-.025-.324-.075-.467a1.04 1.04 0 0 0-.21-.378.928.928 0 0 0-.35-.252 1.14 1.14 0 0 0-.476-.093c-.364 0-.65.104-.858.312-.209.209-.341.501-.397.878h2.366Zm-2.394.616c.012.27.054.505.126.704.072.196.166.36.285.49.12.131.264.23.429.294a1.6 1.6 0 0 0 .56.094c.196 0 .365-.022.509-.066a2.729 2.729 0 0 0 .644-.298.394.394 0 0 1 .205-.07c.08 0 .143.03.187.093l.284.369c-.118.14-.252.258-.401.354-.15.097-.308.176-.476.238-.168.06-.34.102-.518.126a3.32 3.32 0 0 1-.518.042c-.33 0-.636-.054-.92-.163a2.093 2.093 0 0 1-.732-.49 2.298 2.298 0 0 1-.485-.798 3.208 3.208 0 0 1-.173-1.097c0-.33.051-.637.154-.924.106-.286.255-.535.448-.746.196-.212.432-.378.71-.5a2.31 2.31 0 0 1 .947-.186c.292 0 .563.048.812.144.248.094.463.232.644.416.18.183.32.409.42.676.102.265.154.567.154.906 0 .155-.017.26-.052.312-.034.053-.096.08-.186.08h-3.057ZM84.97 20.139c.14.18.292.308.457.382.168.072.353.108.555.108.392 0 .697-.143.915-.43.22-.286.33-.712.33-1.278 0-.293-.024-.542-.074-.747a1.45 1.45 0 0 0-.214-.509.828.828 0 0 0-.341-.284 1.11 1.11 0 0 0-.453-.089c-.255 0-.476.056-.662.168a1.855 1.855 0 0 0-.514.471v2.208Zm-.052-2.875c.199-.233.425-.421.677-.565.255-.143.55-.214.886-.214.268 0 .51.054.728.163.218.106.405.261.56.467.156.205.276.46.36.765.087.302.13.649.13 1.04 0 .352-.048.68-.144.985a2.4 2.4 0 0 1-.406.79c-.178.22-.392.394-.644.522a1.904 1.904 0 0 1-.854.186 1.7 1.7 0 0 1-.714-.135 1.855 1.855 0 0 1-.528-.373v2.02h-1.003v-6.342h.607c.137 0 .224.064.26.192l.085.5Z"/></g></g><defs><clipPath id="ca"><path fill="#fff" d="M0 0h88v30H0z"/></clipPath></defs></svg><svg fill="none" viewBox="0 0 32 32" id="phone" xmlns="http://www.w3.org/2000/svg"><path d="m27.796 19.808-5.889-2.639-.016-.008a2 2 0 0 0-1.896.175 1 1 0 0 0-.094.07L16.86 20c-1.928-.936-3.918-2.911-4.854-4.813l2.597-3.09c.025-.03.05-.062.072-.095a2 2 0 0 0 .165-1.883v-.015l-2.646-5.899a2 2 0 0 0-2.078-1.19A7.033 7.033 0 0 0 4 10c0 9.925 8.075 18 18 18a7.032 7.032 0 0 0 6.985-6.115 2 2 0 0 0-1.189-2.077ZM22 26A16.017 16.017 0 0 1 6 10a5.025 5.025 0 0 1 4.359-5v.015l2.625 5.875-2.584 3.093a.77.77 0 0 0-.071.096 2 2 0 0 0-.125 1.962c1.132 2.317 3.466 4.633 5.807 5.764a2 2 0 0 0 1.969-.142c.032-.022.063-.045.093-.07L21.11 19l5.875 2.631H27a5.026 5.026 0 0 1-5 4.37Z" fill="#107A88"/></svg></svg>